<?xml version="1.0" encoding="utf-8"?>
<?xml-stylesheet type="text/xsl" href="rss1.xsl"?>
<rss version="2.0" xmlns:atom="http://www.w3.org/2005/Atom" xmlns:content="http://purl.org/rss/1.0/modules/content/" xmlns:dc="http://purl.org/dc/elements/1.1/" xmlns:media="http://search.yahoo.com/mrss/">
<channel>
 <title>Getty</title>
 <link>http://www.gettyimg.com/</link>
 <atom:link href="http://www.gettyimg.com/" rel="self" type="application/rss+xml" />

 
                <item>
                <title><![CDATA[【Actresses】Louisa Krause, Gillian Williams - The Girlfriend Experience S01E01(2016)1080p]]></title>
                <link><![CDATA[https://sharemania.us/threads/louisa-krause-gillian-williams-the-girlfriend-experience-s01e01-2016-1080p.239816/]]></link>
                <description><![CDATA[<article>
<blockquote class="messageText SelectQuoteContainer ugc baseHtml">
Louisa Krause, Gillian Williams - The Girlfriend Experience S01E01(2016)1080p<br>
<br>
<a href="https://imgbox.com/dZzbe3MF" target="_blank" class="externalLink" rel="nofollow"><img src="https://thumbs2.imgbox.com/cf/0d/dZzbe3MF_t.jpg" class="bbCodeImage LbImage" alt="[​IMG]" data-url="https://thumbs2.imgbox.com/cf/0d/dZzbe3MF_t.jpg"></a> <a href="https://imgbox.com/s8yDslUm" target="_blank" class="externalLink" rel="nofollow"><img src="https://thumbs2.imgbox.com/d7/91/s8yDslUm_t.jpg" class="bbCodeImage LbImage" alt="[​IMG]" data-url="https://thumbs2.imgbox.com/d7/91/s8yDslUm_t.jpg"></a> <a href="https://imgbox.com/R5kHmNLu" target="_blank" class="externalLink" rel="nofollow"><img src="https://thumbs2.imgbox.com/83/1a/R5kHmNLu_t.jpg" class="bbCodeImage LbImage" alt="[​IMG]" data-url="https://thumbs2.imgbox.com/83/1a/R5kHmNLu_t.jpg"></a> <a href="https://imgbox.com/NfwJtm52" target="_blank" class="externalLink" rel="nofollow"><img src="https://thumbs2.imgbox.com/a8/af/NfwJtm52_t.jpg" class="bbCodeImage LbImage" alt="[​IMG]" data-url="https://thumbs2.imgbox.com/a8/af/NfwJtm52_t.jpg"></a> <a href="https://imgbox.com/SIRt4cvl" target="_blank" class="externalLink" rel="nofollow"><img src="https://thumbs2.imgbox.com/4b/75/SIRt4cvl_t.jpg" class="bbCodeImage LbImage" alt="[​IMG]" data-url="https://thumbs2.imgbox.com/4b/75/SIRt4cvl_t.jpg"></a> <a href="https://imgbox.com/QpuVS159" target="_blank" class="externalLink" rel="nofollow"><img src="https://thumbs2.imgbox.com/2d/08/QpuVS159_t.jpg" class="bbCodeImage LbImage" alt="[​IMG]" data-url="https://thumbs2.imgbox.com/2d/08/QpuVS159_t.jpg"></a><br>
Duration: 0:04:39 Resolution: 1920x1080 Format: mp4 Size: 161.5 MB<br>
<a href="https://filejoker.net/lrdsx3jn4kv8" target="_blank" class="externalLink" rel="nofollow">https://filejoker.net/lrdsx3jn4kv8</a>
<div class="messageTextEndMarker">&nbsp;</div>
</blockquote>
</article>]]></description>
                <author><![CDATA[piqeros]]></author>
                </item>

                
                <item>
                <title><![CDATA[【MASTER &amp; MASTER RIP】MASTER - Olly Alexander - Dizzy [Master 4K]]]></title>
                <link><![CDATA[https://sharemania.us/threads/olly-alexander-dizzy-master-4k.239817/]]></link>
                <description><![CDATA[<article>
<blockquote class="messageText SelectQuoteContainer ugc baseHtml">
<div style="text-align: center"><img src="https://i.ibb.co/wMWShY9/20240313140042.gif" class="bbCodeImage LbImage" alt="[​IMG]" data-url="https://i.ibb.co/wMWShY9/20240313140042.gif" style=""><br>
​</div>
<div class="ToggleTriggerAnchor bbCodeSpoilerContainer">
<button type="button" class="button bbCodeSpoilerButton ToggleTrigger Tooltip JsOnly" data-target="> .SpoilerTarget"><span>Spoiler: <span class="SpoilerTitle">MASTER</span></span></button>
<div class="SpoilerTarget bbCodeSpoilerText">
<div class="bbCodeBlock bbCodeCode">
<div class="type">Code:</div>
<pre>General
Complete name                            : Olly Alexander - Dizzy.mp4
Format                                   : MPEG-4
Format profile                           : Base Media / Version 2
Codec ID                                 : mp42 (mp42/mp41)
File size                                : 1 022 MiB
Duration                                 : 2 min 50 s
Overall bit rate mode                    : Variable
Overall bit rate                         : 50.4 Mb/s
Frame rate                               : 25.000 FPS
Encoded date                             : 2024-03-13 00:52:39 UTC
Tagged date                              : 2024-03-13 00:54:05 UTC
TIM                                      : 00:00:00:00
TSC                                      : 25
TSZ                                      : 1

Video
ID                                       : 1
Format                                   : AVC
Format/Info                              : Advanced Video Codec
Format profile                           : Main@L5.1
Format settings                          : CABAC / 2 Ref Frames
Format settings, CABAC                   : Yes
Format settings, Reference frames        : 2 frames
Codec ID                                 : avc1
Codec ID/Info                            : Advanced Video Coding
Duration                                 : 2 min 50 s
Bit rate mode                            : Variable
Bit rate                                 : 50.0 Mb/s
Maximum bit rate                         : 768 kb/s
Width                                    : 2 880 pixels
Height                                   : 2 160 pixels
Display aspect ratio                     : 4:3
Frame rate mode                          : Constant
Frame rate                               : 25.000 FPS
Color space                              : YUV
Chroma subsampling                       : 4:2:0
Bit depth                                : 8 bits
Scan type                                : Progressive
Bits/(Pixel*Frame)                       : 0.322
Stream size                              : 1 016 MiB (99%)
Language                                 : English
Encoded date                             : 2024-03-13 00:52:39 UTC
Tagged date                              : 2024-03-13 00:52:39 UTC
Color range                              : Limited
Color primaries                          : BT.709
Transfer characteristics                 : BT.709
Matrix coefficients                      : BT.709
Codec configuration box                  : avcC

Audio
ID                                       : 2
Format                                   : AAC LC
Format/Info                              : Advanced Audio Codec Low Complexity
Codec ID                                 : 2 / 40 / mp4a-40-2
Duration                                 : 2 min 50 s
Source duration                          : 2 min 50 s
Bit rate mode                            : Variable
Bit rate                                 : 317 kb/s
Maximum bit rate                         : 495 kb/s
Channel(s)                               : 2 channels
Channel layout                           : L R
Sampling rate                            : 48.0 kHz
Frame rate                               : 46.875 FPS (1024 SPF)
Compression mode                         : Lossy
Stream size                              : 6.44 MiB (1%)
Source stream size                       : 6.44 MiB (1%)
Language                                 : English
Encoded date                             : 2024-03-13 00:52:40 UTC
Tagged date                              : 2024-03-13 00:52:40 UTC

</pre>
</div><div style="text-align: center">​</div></div>
</div><div style="text-align: center"><br>
<div class="bbCodeBlock bbCodeVfcHH HiddenContent">
<div class="attribution type">Hidden Content:</div>
<blockquote>You must reply before you can see the hidden data contained here.</blockquote>
</div></div>
<div class="messageTextEndMarker">&nbsp;</div>
</blockquote>
</article>]]></description>
                <author><![CDATA[fstambuk]]></author>
                </item>

                </channel></rss>